<?xml version="1.0" encoding="UTF-8" standalone="no"?>
<svg
   width="63mm"
   height="63mm"
   viewBox="0 0 63 63"
   version="1.1"
   id="svg5"
   inkscape:version="1.1-alpha (17bc9184, 2021-03-28)"
   sodipodi:docname="red_king.svg"
   xmlns:inkscape="http://www.inkscape.org/namespaces/inkscape"
   xmlns:sodipodi="http://sodipodi.sourceforge.net/DTD/sodipodi-0.dtd"
   xmlns="http://www.w3.org/2000/svg"
   xmlns:svg="http://www.w3.org/2000/svg">
  <sodipodi:namedview
     id="namedview7"
     pagecolor="#ffffff"
     bordercolor="#666666"
     borderopacity="1.0"
     objecttolerance="10.0"
     gridtolerance="10.0"
     guidetolerance="10.0"
     inkscape:pageshadow="2"
     inkscape:pageopacity="0.0"
     inkscape:pagecheckerboard="0"
     inkscape:document-units="mm"
     showgrid="false"
     inkscape:zoom="1.7422847"
     inkscape:cx="215.52161"
     inkscape:cy="184.8148"
     inkscape:window-width="1312"
     inkscape:window-height="786"
     inkscape:window-x="0"
     inkscape:window-y="25"
     inkscape:window-maximized="0"
     inkscape:current-layer="layer1" />
  <defs
     id="defs2">
    <inkscape:path-effect
       effect="skeletal"
       id="path-effect1617"
       is_visible="true"
       lpeversion="1"
       pattern="m 19.067385,21.40024 0.0058,2.655688 z"
       copytype="repeated_stretched"
       prop_scale="2"
       scale_y_rel="false"
       spacing="4"
       normal_offset="0"
       tang_offset="0"
       prop_units="false"
       vertical_pattern="false"
       hide_knot="false"
       fuse_tolerance="0" />
  </defs>
  <g
     inkscape:label="Layer 1"
     inkscape:groupmode="layer"
     id="layer1">
    <g
       id="g835"
       transform="translate(-20.940096,-18.657513)">
      <ellipse
         style="fill:#b72425;fill-opacity:1;stroke:#080000;stroke-width:1;stroke-linecap:butt;stroke-linejoin:round;stroke-miterlimit:4;stroke-dasharray:none;stroke-opacity:1"
         id="path5099"
         cx="52.111401"
         cy="48.765797"
         rx="30.671305"
         ry="29.608284" />
      <path
         id="path846"
         style="fill:#ffffff;stroke:#000000;stroke-width:2;stroke-linecap:butt;stroke-miterlimit:4;stroke-dasharray:none"
         d="m 82.399548,48.834955 c -1.77049,0.0022 -3.540918,0.004 -5.311284,0.0052 1.770366,-0.0013 3.540794,-0.003 5.311284,-0.0052 z m -0.440437,4.495275 c -1.71603,-0.302697 -3.431963,-0.605815 -5.1478,-0.909353 1.715837,0.303538 3.43177,0.606656 5.1478,0.909353 z m -1.148558,4.297694 c -1.63758,-0.578953 -3.275029,-1.158286 -4.912347,-1.737998 1.637318,0.579712 3.274767,1.159045 4.912347,1.737998 z m -1.790322,4.044677 c -1.535142,-0.826561 -3.070118,-1.653461 -4.604928,-2.480698 1.53481,0.827237 3.069786,1.654137 4.604928,2.480698 z m -2.365734,3.736223 c -2.7e-5,-2e-5 -4.225511,-3.137432 -4.225538,-3.137452 -2.7e-5,-2e-5 4.225565,3.137472 4.225538,3.137452 z m -2.874788,3.372329 c -1.258296,-1.235832 -2.516357,-2.471918 -3.774182,-3.708259 1.257825,1.236341 2.515886,2.472427 3.774182,3.708259 z m -3.31749,2.953 c -1.083888,-1.397494 -2.167507,-2.795201 -3.250856,-4.193121 1.083349,1.39792 2.166968,2.795627 3.250856,4.193121 z m -3.693834,2.478232 c -0.885493,-1.530507 -1.77068,-3.061186 -2.655563,-4.592037 0.884883,1.530851 1.77007,3.06153 2.655563,4.592037 z m -4.003826,1.948027 c -0.663106,-1.634872 -1.325873,-3.269874 -1.9883,-4.905006 0.662427,1.635132 1.325194,3.270134 1.9883,4.905006 z m -4.247461,1.362385 c -0.416731,-1.710588 -0.833087,-3.421264 -1.24907,-5.13203 0.415983,1.710766 0.832339,3.421442 1.24907,5.13203 z m -4.424741,0.721305 c -0.146366,-1.757655 -0.292323,-3.515358 -0.437872,-5.273107 0.145549,1.757749 0.291506,3.515452 0.437872,5.273107 z m -4.516229,-7e-6 c 0.142036,-1.758024 0.284481,-3.516001 0.427335,-5.273931 -0.142854,1.75793 -0.285299,3.515907 -0.427335,5.273931 z m -4.424739,-0.721318 c 0.41254,-1.711601 0.825453,-3.423114 1.238742,-5.134539 -0.413289,1.711425 -0.826202,3.422938 -1.238742,5.134539 z m -4.247457,-1.362396 c 1.6e-5,-4.1e-5 1.978356,-4.909001 1.978372,-4.909042 1.6e-5,-4e-5 -1.978388,4.909082 -1.978372,4.909042 z m -4.00382,-1.948038 c 0.88177,-1.53265 1.763846,-3.065129 2.646226,-4.597437 -0.88238,1.532308 -1.764456,3.064787 -2.646226,4.597437 z m -3.693828,-2.478242 c 3e-6,-5e-6 3.2423,-4.199721 3.242304,-4.199725 3e-6,-5e-6 -3.242308,4.199729 -3.242304,4.199725 z m -3.317482,-2.953008 c 1.2553,-1.238891 2.510835,-2.477526 3.766606,-3.715908 -1.255771,1.238382 -2.511306,2.477017 -3.766606,3.715908 z m -2.874779,-3.372337 c 1.406176,-1.048957 2.812553,-2.097619 4.219131,-3.145984 -1.406578,1.048365 -2.812955,2.097027 -4.219131,3.145984 z M 24.6483,61.672527 c 1.533127,-0.830322 3.066421,-1.660306 4.599881,-2.489952 -1.53346,0.829646 -3.066754,1.65963 -4.599881,2.489952 z m -1.790311,-4.044683 c 1.636153,-0.582984 3.272438,-1.165589 4.908854,-1.747815 -1.636416,0.582226 -3.272701,1.164831 -4.908854,1.747815 z m -1.148545,-4.297699 c 1.715254,-0.306944 3.430604,-0.613467 5.146052,-0.919571 -1.715448,0.306104 -3.430798,0.612627 -5.146052,0.919571 z m -0.44042,-4.495277 c 1.770489,-0.0022 3.540916,-0.0039 5.311281,-0.0052 -1.770365,0.0013 -3.540792,0.003 -5.311281,0.0052 z m 0.440451,-4.495272 c 1.716028,0.302703 3.43196,0.605826 5.147796,0.90937 -1.715836,-0.303544 -3.431768,-0.606667 -5.147796,-0.90937 z m 1.14857,-4.29769 c 1.637579,0.578959 3.275026,1.158296 4.912343,1.738013 -1.637317,-0.579717 -3.274764,-1.159054 -4.912343,-1.738013 z m 1.790334,-4.044672 c 1.53514,0.826566 3.070113,1.65347 4.604921,2.480712 -1.534808,-0.827242 -3.069781,-1.654146 -4.604921,-2.480712 z m 2.365744,-3.736216 c 1.408711,1.045525 2.817221,2.091346 4.225531,3.137464 -1.40831,-1.046118 -2.81682,-2.091939 -4.225531,-3.137464 z m 2.874797,-3.372322 c 1.258293,1.235835 2.516351,2.471925 3.774173,3.708269 -1.257822,-1.236344 -2.51588,-2.472434 -3.774173,-3.708269 z m 3.317497,-2.952991 c 1.083886,1.397496 2.167501,2.795206 3.250846,4.193129 -1.083345,-1.397923 -2.16696,-2.795633 -3.250846,-4.193129 z m 3.693842,-2.478223 c 0.885488,1.530509 1.770671,3.061191 2.65555,4.592043 -0.884879,-1.530852 -1.770062,-3.061534 -2.65555,-4.592043 z m 4.00383,-1.948017 c 0.663102,1.634874 1.325864,3.269878 1.988287,4.905012 -0.662423,-1.635134 -1.325185,-3.270138 -1.988287,-4.905012 z m 4.247465,-1.362373 c 0.416726,1.710589 0.833078,3.421267 1.249056,5.132033 -0.415978,-1.710766 -0.83233,-3.421444 -1.249056,-5.132033 z M 49.576298,19.4258 c 0.146361,1.757656 0.292313,3.515359 0.437856,5.273109 -0.145543,-1.75775 -0.291495,-3.515453 -0.437856,-5.273109 z m 4.516229,2.1e-5 c -0.142041,1.758024 -0.284492,3.516 -0.427351,5.27393 0.142859,-1.75793 0.28531,-3.515906 0.427351,-5.27393 z m 4.424736,0.721331 c -0.412544,1.7116 -0.825463,3.423112 -1.238756,5.134536 0.413293,-1.711424 0.826212,-3.422936 1.238756,-5.134536 z m 4.247453,1.362408 c -0.659122,1.636475 -1.318584,3.27282 -1.978385,4.909036 0.659801,-1.636216 1.319263,-3.272561 1.978385,-4.909036 z m 4.003815,1.948048 c -0.881774,1.532648 -1.763854,3.065125 -2.646238,4.59743 0.882384,-1.532305 1.764464,-3.064782 2.646238,-4.59743 z m 3.693822,2.478252 c -1.080501,1.400118 -2.161273,2.800024 -3.242315,4.199717 1.081042,-1.399693 2.161814,-2.799599 3.242315,-4.199717 z m 3.317474,2.953016 c -1.255303,1.238887 -2.510842,2.47752 -3.766616,3.715898 1.255774,-1.238378 2.511313,-2.477011 3.766616,-3.715898 z m 2.87477,3.372345 c -1.406179,1.048953 -2.812558,2.09761 -4.219139,3.145971 1.406581,-1.048361 2.81296,-2.097018 4.219139,-3.145971 z m 2.365713,3.736235 c -1.53313,0.830317 -3.066426,1.660297 -4.599888,2.489939 1.533462,-0.829642 3.066758,-1.659622 4.599888,-2.489939 z m 1.7903,4.044688 c -1.636155,0.582979 -3.272442,1.165579 -4.90886,1.7478 1.636418,-0.582221 3.272705,-1.164821 4.90886,-1.7478 z m 1.148531,4.297703 c -1.715254,0.306938 -3.430606,0.613457 -5.146055,0.919554 1.715449,-0.306097 3.430801,-0.612616 5.146055,-0.919554 z" />
      <path
         id="path4310"
         style="fill:#d70607;fill-opacity:1;stroke:#000000;stroke-width:0.5;stroke-linecap:butt;stroke-linejoin:miter;stroke-miterlimit:4;stroke-dasharray:none;stroke-opacity:1"
         d="m 51.584323,35.78808 c -1.207097,-1.13e-4 -2.18563,1.137844 -2.185394,2.541448 0.0095,1.275556 0.830879,2.345205 1.919779,2.500106 L 50.56785,51.643961 47.732879,43.140086 c 0.653659,-0.458615 1.05409,-1.280638 1.056267,-2.168342 -1.3e-5,-1.4034 -0.978474,-2.541045 -2.185395,-2.540929 -1.206923,-1.16e-4 -2.185384,1.137529 -2.185397,2.540929 10e-6,1.403403 0.978471,2.541045 2.185397,2.540931 0.05381,-0.0058 0.107418,-0.01389 0.160714,-0.02429 l 0.753959,11.611178 -4.317566,-8.564337 c 0.477602,-0.477674 0.754679,-1.171782 0.760158,-1.904275 -1e-5,-1.403165 -0.978156,-2.540712 -2.184879,-2.540932 -1.206923,-1.13e-4 -2.185381,1.137531 -2.185394,2.540932 10e-6,1.403403 0.978468,2.541045 2.185394,2.540931 0.156954,-0.0043 0.313058,-0.02817 0.465606,-0.07132 l 2.837553,12.47159 c 4.641347,2.100398 9.892713,1.761149 13.619324,0.202573 l 3.493844,-13.120647 c 0.0211,0.0034 0.04226,0.0065 0.06356,0.0093 1.2348,0 2.235859,-1.114648 2.236039,-2.489772 7.9e-5,-1.375323 -1.001059,-2.490287 -2.236039,-2.490287 -1.23498,0 -2.23611,1.114964 -2.236039,2.490287 0.007,0.958818 0.508005,1.827892 1.287775,2.234491 l -4.743379,9.199438 1.204061,-12.925827 c 0.039,0.0072 0.0781,0.01378 0.117306,0.0186 1.206719,-2.17e-4 2.18486,-1.137764 2.184878,-2.540929 -8e-6,-1.403167 -0.978159,-2.540712 -2.184878,-2.540931 -1.206929,-1.11e-4 -2.185387,1.137528 -2.185395,2.540931 0.008,1.043387 0.563803,1.975012 1.401463,2.349212 l -2.671672,8.830984 -2.112016,-10.636559 c 0.864132,-0.358368 1.443739,-1.306219 1.451076,-2.372982 2.35e-4,-1.403371 -0.977985,-2.541227 -2.184882,-2.541447 z m 0.503846,21.007504 a 4.4039395,1.2148799 0 0 1 4.403866,1.214914 4.4039395,1.2148799 0 0 1 -4.403866,1.214913 4.4039395,1.2148799 0 0 1 -4.404381,-1.214913 4.4039395,1.2148799 0 0 1 4.404381,-1.214914 z" />
    </g>
  </g>
</svg>
